<?xml version="1.0" standalone="no"?>
<!DOCTYPE svg PUBLIC "-//W3C//DTD SVG 20010904//EN"
 "http://www.w3.org/TR/2001/REC-SVG-20010904/DTD/svg10.dtd">
<svg version="1.0" xmlns="http://www.w3.org/2000/svg"
 width="277.000000pt" height="120.000000pt" viewBox="0 0 277.000000 120.000000"
 preserveAspectRatio="xMidYMid meet">

<g transform="translate(0.000000,120.000000) scale(0.100000,-0.100000)"
fill="#000000" stroke="none">
<path d="M770 1029 c62 -12 85 -38 84 -97 0 -26 -10 -68 -22 -94 -25 -58 -20
-63 8 -8 23 46 35 117 26 154 -8 32 -53 56 -103 55 l-38 -1 45 -9z"/>
<path d="M2050 1034 c48 -9 77 -25 90 -49 17 -32 7 -111 -20 -164 -11 -23 -18
-41 -15 -41 16 0 59 119 59 163 0 63 -24 88 -90 93 -27 1 -38 1 -24 -2z"/>
<path d="M1998 1023 c7 -3 16 -2 19 1 4 3 -2 6 -13 5 -11 0 -14 -3 -6 -6z"/>
<path d="M1411 835 c1 -40 1 -40 11 -12 7 21 7 32 -1 40 -8 8 -11 0 -10 -28z"/>
<path d="M429 823 c-13 -16 -12 -17 4 -4 9 7 17 15 17 17 0 8 -8 3 -21 -13z"/>
<path d="M1356 792 c-52 -103 -137 -354 -124 -367 2 -3 16 24 32 59 l27 64 42
-4 c23 -2 33 -1 22 2 -36 11 -47 25 -33 42 11 13 11 14 0 8 -8 -5 -22 -22 -33
-40 -10 -17 -19 -28 -19 -24 0 18 70 208 94 256 14 28 24 52 21 52 -2 0 -15
-21 -29 -48z"/>
<path d="M1133 776 c-25 -51 -30 -56 -63 -58 -35 -1 -35 -1 -4 -5 l31 -4 -29
-85 c-30 -87 -34 -154 -10 -162 11 -3 12 0 2 18 -10 18 -10 35 0 78 13 57 46
143 59 152 10 7 52 112 47 118 -3 2 -17 -21 -33 -52z"/>
<path d="M1690 773 c-56 -88 -63 -168 -17 -211 12 -11 55 -34 95 -50 40 -17
84 -37 97 -46 30 -20 41 -59 26 -94 -11 -25 -10 -26 4 -8 21 28 19 76 -6 102
-12 13 -57 37 -100 54 -43 18 -90 44 -105 58 -23 24 -26 33 -22 84 3 41 13 70
36 107 17 28 29 51 26 51 -2 0 -18 -21 -34 -47z"/>
<path d="M1396 775 c-9 -26 -7 -32 5 -12 6 10 9 21 6 23 -2 3 -7 -2 -11 -11z"/>
<path d="M2204 755 c-6 -24 -8 -25 -99 -25 -52 0 -96 -3 -98 -7 -3 -5 35 -7
84 -5 49 2 89 1 89 -3 0 -3 -9 -23 -20 -44 -10 -21 -17 -41 -14 -43 3 -3 -6
-39 -19 -79 -32 -95 -39 -129 -30 -129 5 0 14 24 21 53 6 28 28 98 48 155 l37
102 116 2 116 2 -111 3 c-106 3 -112 5 -107 23 3 11 3 20 -1 20 -3 0 -8 -11
-12 -25z"/>
<path d="M370 728 c-25 -54 -25 -126 -2 -154 19 -25 56 -44 135 -74 73 -27
101 -58 95 -105 -4 -33 -3 -35 9 -19 38 52 -4 104 -120 148 -99 37 -122 62
-121 129 0 29 8 67 17 85 10 17 15 32 12 32 -3 0 -15 -19 -25 -42z"/>
<path d="M1168 723 c12 -2 32 -2 45 0 12 2 2 4 -23 4 -25 0 -35 -2 -22 -4z"/>
<path d="M1248 723 c7 -3 16 -2 19 1 4 3 -2 6 -13 5 -11 0 -14 -3 -6 -6z"/>
<path d="M1190 660 c0 -5 5 -10 11 -10 5 0 7 5 4 10 -3 6 -8 10 -11 10 -2 0
-4 -4 -4 -10z"/>
<path d="M974 611 c-35 -39 -39 -48 -27 -59 25 -24 48 -10 51 33 2 22 8 46 14
53 6 7 9 14 7 16 -2 2 -23 -17 -45 -43z m6 -37 c0 -22 -2 -25 -15 -14 -12 10
-13 16 -4 26 16 20 19 18 19 -12z"/>
<path d="M772 623 c-1 -17 -5 -40 -8 -50 -5 -17 -5 -17 6 0 6 9 9 32 7 50 l-4
32 -1 -32z"/>
<path d="M2002 627 c-21 -23 -31 -77 -13 -77 4 0 6 10 4 23 -5 27 19 63 36 53
9 -6 8 -14 -5 -34 -15 -23 -15 -25 -2 -14 14 11 17 10 20 -10 2 -13 11 -24 22
-26 18 -4 19 -3 3 13 -11 11 -15 25 -11 41 6 23 -9 54 -25 54 -4 0 -17 -10
-29 -23z"/>
<path d="M660 604 c-13 -33 -13 -54 1 -54 5 0 8 4 5 9 -3 4 -1 22 4 40 10 37
3 41 -10 5z"/>
<path d="M832 607 c-22 -23 -31 -74 -12 -62 6 4 8 11 4 16 -3 5 2 21 11 36 12
18 20 22 28 14 7 -7 5 -17 -9 -33 l-19 -23 23 19 c22 19 22 19 22 -7 0 -18 5
-27 16 -27 13 0 14 3 4 15 -7 8 -9 26 -6 42 6 25 3 29 -17 31 -14 1 -33 -8
-45 -21z"/>
<path d="M2390 620 c-14 -4 -19 -8 -11 -9 8 -1 11 -7 7 -17 -3 -9 -2 -12 5 -8
6 3 10 -1 9 -12 -4 -35 0 -44 18 -44 13 0 14 2 3 9 -10 7 -12 20 -7 50 3 23 5
41 4 40 -2 -1 -14 -5 -28 -9z"/>
<path d="M1345 610 c3 -5 8 -10 11 -10 2 0 4 5 4 10 0 6 -5 10 -11 10 -5 0 -7
-4 -4 -10z"/>
<path d="M1459 611 c8 -5 10 -14 6 -21 -5 -9 -4 -11 3 -6 8 5 12 -3 12 -23 0
-22 5 -31 16 -31 13 0 14 3 5 14 -6 7 -8 27 -5 45 6 29 5 31 -22 31 -21 0 -25
-3 -15 -9z"/>
<path d="M2210 601 c-13 -25 -13 -51 1 -51 5 0 8 4 5 9 -4 5 -2 21 4 35 11 30
5 35 -10 7z"/>
<path d="M2279 604 c-8 -9 -14 -22 -14 -28 -1 -21 -28 -91 -45 -116 -29 -42
-70 -128 -70 -147 1 -10 7 -2 14 17 15 41 55 118 56 107 0 -4 -7 -24 -15 -44
-8 -20 -14 -38 -12 -40 2 -2 11 14 20 34 18 41 85 233 82 233 -2 0 -9 -7 -16
-16z"/>
<path d="M1157 574 c-10 -19 -13 -33 -8 -30 5 4 12 2 16 -4 3 -5 16 -10 28 -9
22 0 22 0 -1 10 -20 7 -23 14 -17 39 9 40 2 38 -18 -6z"/>
<path d="M703 589 c-14 -14 -4 -59 14 -59 13 0 13 3 3 15 -7 8 -10 24 -7 35 6
23 5 24 -10 9z"/>
<path d="M2330 581 c-12 -24 -13 -41 -1 -41 5 0 11 14 13 30 5 35 3 37 -12 11z"/>
<path d="M1414 575 c-3 -8 -4 -20 -2 -27 3 -7 7 -1 10 15 6 29 1 36 -8 12z"/>
<path d="M417 313 c-4 -3 -7 -15 -7 -25 0 -14 7 -18 33 -17 30 1 30 2 7 8 -15
4 -24 14 -24 24 2 19 1 20 -9 10z"/>
<path d="M1707 303 c-13 -21 2 -33 36 -32 29 2 30 2 5 6 -15 2 -28 12 -30 21
-3 13 -6 14 -11 5z"/>
</g>
</svg>
